<svg xmlns="http://www.w3.org/2000/svg" version="1.1" width="1500"
     height="181" viewBox="0 0 1500 181">
    <g transform="matrix(1,0,0,1,1.2660623108182563,-1.1950179668820624)">
        <svg viewBox="0 0 396 48" data-background-color="#ffffff" preserveAspectRatio="xMidYMid meet"
             height="181" width="1500" xmlns="http://www.w3.org/2000/svg">
            <g id="tight-bounds" transform="matrix(1,0,0,1,0.24000000000003752,0.31691084204607023)">
                <svg viewBox="0 0 395.5199999999999 47.366178315907874" height="47.366178315907874"
                     width="395.5199999999999">
                    <g>
                        <svg viewBox="0 0 467.11601523915806 55.94028234231974" height="47.366178315907874"
                             width="395.5199999999999">
                            <g transform="matrix(1,0,0,1,71.59601523915808,3.585940544200625)">
                                <svg viewBox="0 0 395.52 48.76840125391849" height="48.76840125391849" width="395.52">
                                    <g id="textblocktransform">
                                        <svg viewBox="0 0 395.52 48.76840125391849" height="48.76840125391849"
                                             width="395.52" id="textblock">
                                            <g>
                                                <svg viewBox="0 0 395.52 48.76840125391849" height="48.76840125391849"
                                                     width="395.52">
                                                    <g transform="matrix(1,0,0,1,0,0)">
                                                        <svg width="395.52"
                                                             viewBox="3.47 -34.38 280.34 34.580000000000005"
                                                             height="48.76840125391849" data-palette-color="#1b4976">
                                                            <path
                                                                d="M3.47-5.66L3.47-28.61Q3.47-29.66 3.53-30.66 3.59-31.67 3.93-32.45 4.27-33.23 5.02-33.7 5.76-34.18 7.13-34.18L7.13-34.18 15.19-34.18Q18.19-34.03 20.56-32.91L20.56-32.91Q21.56-32.42 22.52-31.7 23.49-30.98 24.24-29.92 25-28.86 25.46-27.42 25.93-25.98 25.93-24.07L25.93-24.07Q25.93-23.68 25.85-23.03 25.78-22.39 25.54-21.62 25.29-20.85 24.88-20.02 24.46-19.19 23.78-18.43 23.1-17.68 22.11-17.04 21.12-16.41 19.78-16.02L19.78-16.02Q20.63-15.67 21.51-15.12 22.39-14.58 23.1-13.72 23.8-12.87 24.26-11.67 24.71-10.47 24.71-8.89L24.71-8.89 24.71-5.42Q24.71-5.13 24.85-4.93 25-4.74 25.15-4.59L25.15-4.59Q25.73-4 25.83-3.58 25.93-3.15 25.93-2.88L25.93-2.88Q25.93-2.03 25.59-1.44 25.24-0.85 24.69-0.49 24.15-0.12 23.45 0.04 22.75 0.2 22.02 0.2L22.02 0.2Q21.22 0.2 20.39-0.06 19.56-0.32 18.87-0.81 18.19-1.29 17.76-2.03 17.33-2.76 17.33-3.71L17.33-3.71 17.33-8.89Q17.33-9.96 17.19-10.86 17.04-11.77 16.63-12.43 16.21-13.09 15.48-13.45 14.75-13.82 13.57-13.82L13.57-13.82 10.84-13.82 10.84-5.66Q10.84-4.59 10.78-3.56 10.72-2.54 10.38-1.75 10.03-0.95 9.28-0.48 8.52 0 7.13 0L7.13 0Q5.76 0 5.02-0.48 4.27-0.95 3.93-1.75 3.59-2.54 3.53-3.56 3.47-4.59 3.47-5.66L3.47-5.66ZM10.84-19.29L14.16-19.29Q15.38-19.34 16.36-19.87L16.36-19.87Q16.77-20.09 17.16-20.43 17.55-20.78 17.87-21.29 18.19-21.8 18.37-22.49 18.55-23.17 18.55-24.07L18.55-24.07Q18.55-24.88 18.37-25.5 18.19-26.12 17.9-26.59 17.6-27.05 17.22-27.37 16.85-27.69 16.46-27.88L16.46-27.88Q15.53-28.34 14.36-28.42L14.36-28.42 10.84-28.42 10.84-19.29ZM34.96-34.18L44.53-34.18Q45.51-34.18 46.51-34.11 47.51-34.03 48.31-33.69 49.12-33.35 49.63-32.65 50.14-31.96 50.14-30.71L50.14-30.71Q50.14-29.47 49.63-28.77 49.12-28.08 48.31-27.73 47.51-27.39 46.51-27.32 45.51-27.25 44.53-27.25L44.53-27.25 38.72-27.25 38.72-20.61 41.79-20.61Q42.77-20.61 43.76-20.54 44.75-20.48 45.52-20.15 46.29-19.82 46.77-19.15 47.26-18.48 47.26-17.29L47.26-17.29Q47.26-16.06 46.77-15.41 46.29-14.75 45.52-14.42 44.75-14.09 43.76-14.03 42.77-13.96 41.79-13.96L41.79-13.96 38.72-13.96 38.72-6.93 44.53-6.93Q45.51-6.93 46.51-6.86 47.51-6.79 48.31-6.46 49.12-6.13 49.63-5.43 50.14-4.74 50.14-3.52L50.14-3.52Q50.14-2.25 49.62-1.54 49.09-0.83 48.29-0.49 47.48-0.15 46.48-0.07 45.48 0 44.53 0L44.53 0 34.96 0Q33.59 0 32.85-0.49 32.1-0.98 31.76-1.77 31.42-2.56 31.36-3.56 31.3-4.57 31.3-5.62L31.3-5.62 31.3-28.56Q31.3-29.61 31.36-30.62 31.42-31.62 31.76-32.41 32.1-33.2 32.85-33.69 33.59-34.18 34.96-34.18L34.96-34.18ZM66.55-31.15L74.31-10.11 74.9-10.11 74.9-30.37Q74.9-31.15 75-31.85 75.09-32.54 75.42-33.06 75.75-33.57 76.4-33.87 77.05-34.18 78.17-34.18L78.17-34.18Q79.41-34.18 80.13-33.87 80.85-33.57 81.22-33.06 81.59-32.54 81.68-31.85 81.78-31.15 81.78-30.37L81.78-30.37 81.78-5.62Q81.78-4.54 81.72-3.54 81.66-2.54 81.33-1.75 81-0.95 80.26-0.48 79.51 0 78.17 0L78.17 0 74.95 0Q73.8 0 73.03-0.45 72.26-0.9 71.75-1.55 71.24-2.2 70.93-2.91 70.62-3.61 70.45-4.1L70.45-4.1 63.08-24.07 62.5-24.07 62.5-3.81Q62.5-3.03 62.4-2.33 62.3-1.64 61.97-1.12 61.64-0.61 60.99-0.31 60.35 0 59.22 0L59.22 0Q57.95 0 57.22-0.31 56.49-0.61 56.12-1.12 55.76-1.64 55.66-2.33 55.56-3.03 55.56-3.81L55.56-3.81 55.56-28.56Q55.56-29.61 55.62-30.63 55.68-31.64 56.03-32.43 56.37-33.23 57.11-33.7 57.86-34.18 59.22-34.18L59.22-34.18 62.45-34.18Q63.67-34.18 64.44-33.7 65.2-33.23 65.69-32.67L65.69-32.67Q66.23-32.01 66.55-31.15L66.55-31.15ZM87.69-9.91L87.69-24.51Q87.69-26.86 88.37-28.5 89.06-30.15 90.12-31.25 91.18-32.35 92.46-32.97 93.74-33.59 94.95-33.91 96.16-34.23 97.14-34.3 98.11-34.38 98.58-34.38L98.58-34.38 99.41-34.38Q99.87-34.38 100.85-34.3 101.82-34.23 103.02-33.91 104.22-33.59 105.5-32.97 106.78-32.35 107.82-31.25 108.85-30.15 109.53-28.5 110.2-26.86 110.2-24.51L110.2-24.51 110.2-9.91Q110.2-7.5 109.53-5.81 108.85-4.13 107.82-3 106.78-1.88 105.5-1.23 104.22-0.59 103.02-0.27 101.82 0.05 100.85 0.12 99.87 0.2 99.41 0.2L99.41 0.2 98.58 0.2Q98.11 0.2 97.14 0.12 96.16 0.05 94.95-0.27 93.74-0.59 92.46-1.23 91.18-1.88 90.12-3 89.06-4.13 88.37-5.81 87.69-7.5 87.69-9.91L87.69-9.91ZM95.79-24.9L95.79-8.98Q95.84-8.08 96.21-7.4L96.21-7.4Q96.53-6.79 97.17-6.3 97.82-5.81 99.02-5.81L99.02-5.81Q100.19-5.81 100.82-6.3 101.46-6.79 101.77-7.4L101.77-7.4Q102.12-8.08 102.19-8.98L102.19-8.98 102.19-24.9Q102.12-25.78 101.77-26.49L101.77-26.49Q101.46-27.08 100.82-27.58 100.19-28.08 99.02-28.08L99.02-28.08Q97.82-28.08 97.17-27.58 96.53-27.08 96.21-26.49L96.21-26.49Q95.84-25.78 95.79-24.9L95.79-24.9ZM139.15-34.18L146.23-34.18Q148.45-34.18 150.37-33.62 152.28-33.06 153.71-31.95 155.14-30.83 155.96-29.17 156.77-27.51 156.77-25.29L156.77-25.29 156.77-10.16Q156.77-8.25 156.36-6.8 155.94-5.35 155.27-4.28 154.6-3.22 153.75-2.48 152.89-1.73 152.01-1.27L152.01-1.27Q149.91-0.15 147.25 0L147.25 0 139.15 0Q137.76 0 137-0.48 136.24-0.95 135.9-1.75 135.56-2.54 135.5-3.54 135.44-4.54 135.44-5.62L135.44-5.62 135.44-28.61Q135.44-29.66 135.5-30.66 135.56-31.67 135.9-32.45 136.24-33.23 137-33.7 137.76-34.18 139.15-34.18L139.15-34.18ZM146.03-28.47L142.86-28.47 142.86-5.81 146.03-5.81Q147.08-5.86 147.91-6.3L147.91-6.3Q148.25-6.47 148.6-6.76 148.94-7.06 149.21-7.46 149.47-7.86 149.63-8.42 149.79-8.98 149.79-9.72L149.79-9.72 149.79-24.12Q149.79-24.93 149.63-25.55 149.47-26.17 149.21-26.64 148.94-27.1 148.6-27.42 148.25-27.73 147.91-27.93L147.91-27.93Q147.08-28.39 146.03-28.47L146.03-28.47ZM162.97-5.62L162.97-28.56Q162.97-29.61 163.08-30.62 163.19-31.62 163.6-32.41 164-33.2 164.8-33.69 165.61-34.18 167.03-34.18L167.03-34.18Q168.44-34.18 169.25-33.69 170.05-33.2 170.46-32.41 170.86-31.62 170.97-30.62 171.08-29.61 171.08-28.56L171.08-28.56 171.08-5.62Q171.08-4.54 170.98-3.54 170.88-2.54 170.48-1.75 170.08-0.95 169.26-0.48 168.44 0 167.03 0L167.03 0Q165.61 0 164.8-0.48 164-0.95 163.6-1.75 163.19-2.54 163.08-3.54 162.97-4.54 162.97-5.62L162.97-5.62ZM189.73-31.15L197.49-10.11 198.08-10.11 198.08-30.37Q198.08-31.15 198.18-31.85 198.27-32.54 198.6-33.06 198.93-33.57 199.58-33.87 200.23-34.18 201.35-34.18L201.35-34.18Q202.59-34.18 203.32-33.87 204.04-33.57 204.4-33.06 204.77-32.54 204.87-31.85 204.96-31.15 204.96-30.37L204.96-30.37 204.96-5.62Q204.96-4.54 204.9-3.54 204.84-2.54 204.51-1.75 204.18-0.95 203.44-0.48 202.69 0 201.35 0L201.35 0 198.13 0Q196.98 0 196.21-0.45 195.44-0.9 194.93-1.55 194.42-2.2 194.11-2.91 193.81-3.61 193.63-4.1L193.63-4.1 186.26-24.07 185.68-24.07 185.68-3.81Q185.68-3.03 185.58-2.33 185.48-1.64 185.15-1.12 184.82-0.61 184.17-0.31 183.53 0 182.4 0L182.4 0Q181.13 0 180.4-0.31 179.67-0.61 179.3-1.12 178.94-1.64 178.84-2.33 178.74-3.03 178.74-3.81L178.74-3.81 178.74-28.56Q178.74-29.61 178.8-30.63 178.86-31.64 179.21-32.43 179.55-33.23 180.29-33.7 181.04-34.18 182.4-34.18L182.4-34.18 185.63-34.18Q186.85-34.18 187.62-33.7 188.39-33.23 188.87-32.67L188.87-32.67Q189.41-32.01 189.73-31.15L189.73-31.15ZM218.05-25.59L218.05-25.59Q218.07-24.56 218.64-23.74 219.22-22.92 220.16-22.19 221.1-21.46 222.29-20.76 223.49-20.07 224.75-19.3 226.01-18.53 227.2-17.63 228.4-16.72 229.35-15.58 230.3-14.43 230.89-12.99 231.47-11.55 231.52-9.72L231.52-9.72 231.52-9.52Q231.52-7.52 231.03-6.03 230.55-4.54 229.74-3.47 228.94-2.39 227.86-1.7 226.79-1 225.6-0.59 224.42-0.17 223.21 0 222 0.17 220.93 0.2L220.93 0.2 220.68 0.2Q218.61 0.2 217.05-0.22 215.48-0.63 214.36-1.33 213.24-2.03 212.49-2.93 211.75-3.83 211.31-4.8 210.87-5.76 210.67-6.71 210.48-7.67 210.48-8.5L210.48-8.5Q210.48-9.35 210.77-9.99 211.06-10.62 211.54-11.02 212.02-11.43 212.64-11.62 213.26-11.82 213.94-11.82L213.94-11.82Q214.58-11.82 215.25-11.62 215.92-11.43 216.47-11.02 217.02-10.62 217.38-10 217.73-9.38 217.75-8.54L217.75-8.54Q217.8-6.71 218.58-6.04 219.36-5.37 220.83-5.37L220.83-5.37Q221.56-5.4 222.18-5.55 222.81-5.71 223.25-6.12 223.69-6.52 223.94-7.19 224.2-7.86 224.2-8.89L224.2-8.89Q224.2-10.16 223.63-11.18 223.05-12.21 222.12-13.09 221.2-13.96 220-14.76 218.8-15.55 217.56-16.35 216.31-17.14 215.13-18.01 213.94-18.87 212.99-19.9 212.04-20.92 211.47-22.17 210.89-23.41 210.87-25L210.87-25 210.87-25.39Q210.89-28 211.56-29.74 212.24-31.47 213.54-32.5 214.85-33.52 216.75-33.95 218.66-34.38 221.12-34.38L221.12-34.38 221.76-34.38Q224-34.38 225.57-33.89 227.13-33.4 228.17-32.64 229.2-31.88 229.8-30.93 230.4-29.98 230.69-29.05 230.99-28.13 231.06-27.32 231.13-26.51 231.13-26.03L231.13-26.03Q231.13-25.29 230.85-24.69 230.57-24.1 230.09-23.68 229.62-23.27 228.97-23.03 228.32-22.8 227.57-22.8L227.57-22.8Q226.98-22.8 226.4-23.03 225.81-23.27 225.35-23.63 224.88-24 224.59-24.48 224.3-24.95 224.3-25.44L224.3-25.44Q224.3-27.44 223.58-28.22 222.86-29 221.46-29L221.46-29Q220.81-29 220.18-28.93 219.56-28.86 219.08-28.53 218.61-28.2 218.33-27.51 218.05-26.83 218.05-25.59ZM235.62-9.91L235.62-24.51Q235.62-26.86 236.31-28.5 236.99-30.15 238.05-31.25 239.11-32.35 240.39-32.97 241.68-33.59 242.89-33.91 244.09-34.23 245.07-34.3 246.05-34.38 246.51-34.38L246.51-34.38 247.34-34.38Q247.8-34.38 248.78-34.3 249.76-34.23 250.95-33.91 252.15-33.59 253.43-32.97 254.71-32.35 255.75-31.25 256.79-30.15 257.46-28.5 258.13-26.86 258.13-24.51L258.13-24.51 258.13-9.91Q258.13-7.5 257.46-5.81 256.79-4.13 255.75-3 254.71-1.88 253.43-1.23 252.15-0.59 250.95-0.27 249.76 0.05 248.78 0.12 247.8 0.2 247.34 0.2L247.34 0.2 246.51 0.2Q246.05 0.2 245.07 0.12 244.09 0.05 242.89-0.27 241.68-0.59 240.39-1.23 239.11-1.88 238.05-3 236.99-4.13 236.31-5.81 235.62-7.5 235.62-9.91L235.62-9.91ZM243.73-24.9L243.73-8.98Q243.78-8.08 244.14-7.4L244.14-7.4Q244.46-6.79 245.11-6.3 245.75-5.81 246.95-5.81L246.95-5.81Q248.12-5.81 248.76-6.3 249.39-6.79 249.71-7.4L249.71-7.4Q250.05-8.08 250.12-8.98L250.12-8.98 250.12-24.9Q250.05-25.78 249.71-26.49L249.71-26.49Q249.39-27.08 248.76-27.58 248.12-28.08 246.95-28.08L246.95-28.08Q245.75-28.08 245.11-27.58 244.46-27.08 244.14-26.49L244.14-26.49Q243.78-25.78 243.73-24.9L243.73-24.9ZM270.34-25.59L270.34-25.59Q270.36-24.56 270.93-23.74 271.51-22.92 272.45-22.19 273.39-21.46 274.58-20.76 275.78-20.07 277.04-19.3 278.3-18.53 279.49-17.63 280.69-16.72 281.64-15.58 282.59-14.43 283.18-12.99 283.76-11.55 283.81-9.72L283.81-9.72 283.81-9.52Q283.81-7.52 283.32-6.03 282.84-4.54 282.03-3.47 281.23-2.39 280.15-1.7 279.08-1 277.89-0.59 276.71-0.17 275.5 0 274.29 0.17 273.22 0.2L273.22 0.2 272.97 0.2Q270.9 0.2 269.34-0.22 267.77-0.63 266.65-1.33 265.53-2.03 264.78-2.93 264.04-3.83 263.6-4.8 263.16-5.76 262.96-6.71 262.77-7.67 262.77-8.5L262.77-8.5Q262.77-9.35 263.06-9.99 263.35-10.62 263.83-11.02 264.31-11.43 264.93-11.62 265.55-11.82 266.23-11.82L266.23-11.82Q266.87-11.82 267.54-11.62 268.21-11.43 268.76-11.02 269.31-10.62 269.66-10 270.02-9.38 270.04-8.54L270.04-8.54Q270.09-6.71 270.87-6.04 271.65-5.37 273.12-5.37L273.12-5.37Q273.85-5.4 274.47-5.55 275.1-5.71 275.54-6.12 275.98-6.52 276.23-7.19 276.49-7.86 276.49-8.89L276.49-8.89Q276.49-10.16 275.91-11.18 275.34-12.21 274.41-13.09 273.49-13.96 272.29-14.76 271.09-15.55 269.85-16.35 268.6-17.14 267.42-18.01 266.23-18.87 265.28-19.9 264.33-20.92 263.76-22.17 263.18-23.41 263.16-25L263.16-25 263.16-25.39Q263.18-28 263.85-29.74 264.53-31.47 265.83-32.5 267.14-33.52 269.04-33.95 270.95-34.38 273.41-34.38L273.41-34.38 274.05-34.38Q276.29-34.38 277.86-33.89 279.42-33.4 280.46-32.64 281.49-31.88 282.09-30.93 282.69-29.98 282.98-29.05 283.28-28.13 283.35-27.32 283.42-26.51 283.42-26.03L283.42-26.03Q283.42-25.29 283.14-24.69 282.86-24.1 282.38-23.68 281.91-23.27 281.26-23.03 280.61-22.8 279.86-22.8L279.86-22.8Q279.27-22.8 278.69-23.03 278.1-23.27 277.64-23.63 277.17-24 276.88-24.48 276.59-24.95 276.59-25.44L276.59-25.44Q276.59-27.44 275.87-28.22 275.15-29 273.75-29L273.75-29Q273.1-29 272.47-28.93 271.85-28.86 271.37-28.53 270.9-28.2 270.62-27.51 270.34-26.83 270.34-25.59Z"
                                                                opacity="1" transform="matrix(1,0,0,1,0,0)"
                                                                fill="#1b4976" class="wordmark-text-0"
                                                                data-fill-palette-color="primary" id="text-0"></path>
                                                        </svg>
                                                    </g>
                                                </svg>
                                            </g>
                                        </svg>
                                    </g>
                                </svg>
                            </g>
                            <g>
                                <svg viewBox="0 0 60.08296614473801 55.94028234231974" height="55.94028234231974"
                                     width="60.08296614473801">
                                    <g>
                                        <svg xmlns="http://www.w3.org/2000/svg" version="1.1" x="0" y="0"
                                             viewBox="0 0 57.999 54.00000438986899"
                                             style="enable-background:new 0 0 57.999 54;" xml:space="preserve"
                                             id="icon-0" width="60.08296614473801" height="55.94028234231974"
                                             class="icon-icon-0" data-fill-palette-color="accent"><g fill="#114170" data-fill-palette-color="accent"><path d="M50.104 40.211C49.626 40.45 49.27 40.86 49.101 41.367S48.97 42.417 49.21 42.895A1.99 1.99 0 0 0 51 44C51.307 44 51.614 43.928 51.894 43.789A9.18 9.18 0 0 0 56.914 36.767 8.96 8.96 0 0 1 51.689 38.965 5.2 5.2 0 0 1 50.104 40.211" fill="#114170" data-fill-palette-color="accent"></path><path
                                            d="M31.999 51.709V49C31.999 46.243 29.756 44 26.999 44H22.999C20.242 44 17.999 46.243 17.999 49S20.242 54 22.999 54H27.545A36 36 0 0 0 50.279 45.928 3.96 3.96 0 0 1 48.3 44.945 34 34 0 0 1 31.999 51.709"
                                            fill="#114170" data-fill-palette-color="accent"></path><path
                                            d="M24.813 6.904L27.667 4.866A15.3 15.3 0 0 1 36.61 2C45.095 2 51.999 8.903 51.999 17.389V19.059C52.694 19.136 53.361 19.299 53.999 19.525V17.651C53.999 7.918 46.081 0 36.348 0 33.037 0 29.802 0.928 26.994 2.683L24.242 4.403A0.52 0.52 0 0 0 24 4.841V6.487C23.999 6.876 24.494 7.132 24.813 6.904"
                                            fill="#114170" data-fill-palette-color="accent"></path><path
                                            d="M26 31A1 1 0 0 0 27 30V25H32A1 1 0 0 0 33 24V22A1 1 0 0 0 32 21H27V16A1 1 0 0 0 26 15H24A1 1 0 0 0 23 16V21H18A1 1 0 0 0 17 22V24A1 1 0 0 0 18 25H23V30A1 1 0 0 0 24 31z"
                                            fill="#114170" data-fill-palette-color="accent"></path><path
                                            d="M56.565 23.773C55.007 24.825 53.999 26.829 53.999 29S55.007 33.175 56.565 34.227A6.95 6.95 0 0 0 57.999 30V28A6.95 6.95 0 0 0 56.565 23.773"
                                            fill="#114170" data-fill-palette-color="accent"></path><path
                                            d="M43.999 20V38A1 1 0 0 0 45.999 38V20A1 1 0 0 0 43.999 20" fill="#114170"
                                            data-fill-palette-color="accent"></path><path
                                            d="M47.999 21V37H50.999A6.95 6.95 0 0 0 55.126 35.641C53.198 34.179 51.999 31.724 51.999 29S53.198 23.821 55.127 22.359A6.96 6.96 0 0 0 50.999 21z"
                                            fill="#114170" data-fill-palette-color="accent"></path><path
                                            d="M24.997 43.999H24.999C25.41 43.999 25.808 43.854 26.121 43.591L41.999 30.254V20C41.999 18.346 43.345 17 44.999 17 46.301 17 47.401 17.839 47.815 19H49.999V17.389C49.999 10.006 43.993 4 36.61 4A13.32 13.32 0 0 0 28.828 6.493L25.974 8.531A2.5 2.5 0 0 1 24.514 9 2.51 2.51 0 0 1 22.016 6.645 13.37 13.37 0 0 0 14.066 4H13.324C5.978 4 0 9.978 0 17.324 0 21.27 1.733 24.989 4.755 27.527L23.879 43.59C24.191 43.854 24.589 43.999 24.997 43.999M9.337 28.766L7.356 27.101 8.643 25.57 10.624 27.235zM14.066 8H13.324C8.183 8 4 12.183 4 17.324A9.26 9.26 0 0 0 6.708 23.895L5.29 25.305A11.24 11.24 0 0 1 2 17.324C2 11.08 7.08 6 13.324 6H14.066zM28 37H26V35H28zM32 37H30V35H32zM20 37H18V35H20zM21 30V27H18C16.346 27 15 25.654 15 24V22C15 20.346 16.346 19 18 19H21V16C21 14.346 22.346 13 24 13H26C27.654 13 29 14.346 29 16V19H32C33.654 19 35 20.346 35 22V24C35 25.654 33.654 27 32 27H29V30C29 31.654 27.654 33 26 33H24C22.346 33 21 31.654 21 30M22 35H24V37H22z"
                                            fill="#114170" data-fill-palette-color="accent"></path></g></svg>
                                    </g>
                                </svg>
                            </g>
                        </svg>
                    </g>
                    <defs></defs>
                </svg>
                <rect width="395.5199999999999" height="47.366178315907874" fill="none" stroke="none"
                      visibility="hidden"></rect>
            </g>
        </svg>
    </g>
</svg>
